# xmcd
#
# Track frame offsets: 
#        150
#        9022
#        18705
#        27825
#        39450
#        51650
#        63177
#        75012
#        88407
#        94095
#        103250
#        111357
#        120742
#        132057
#        141742
#        154557
#        167085
#        176270
#        184192
#        193707
#        203032
#        213762
#        221467
#        230615
#
# Disc length: 3210 seconds
#
# Revision: 1
# Processed by: cddbd v1.4PL0 Copyright (c) Steve Scherf et al.
# Submitted via: ExactAudioCopy v0.95a3
#
DISCID=480c8818
DTITLE=Willis Brothers - 24 Great Truck Drivin' Songs
DYEAR=1987
DGENRE=Country
TTITLE0=The Old Sleeper Cab
TTITLE1=Alcohol And # 2 Diesel
TTITLE2=Blazing Smokestack
TTITLE3=Give Me Forty Acres
TTITLE4=It's The Miles
TTITLE5=Big Daddy (Is Alabama Bound)
TTITLE6=Diesel Smoke On Danger Road
TTITLE7=Rye Whiskey
TTITLE8=(Cody Of The) Pony Express
TTITLE9=When I Come Driving Through
TTITLE10=Wheels A 'Turning
TTITLE11=Drivin's In My Blood
TTITLE12=Truck Driving Sam
TTITLE13=Motorcycle Bill
TTITLE14=Ode To Big Joe
TTITLE15=Truck Driver's Blues
TTITLE16=Highway Patrol
TTITLE17=Long Haul Weekend
TTITLE18=Truck Driver's Queen
TTITLE19=White Lines And Roadside Signs
TTITLE20=The Only Shoulder (A Trucker Can Cry On)
TTITLE21=Diesel Drivin' Donut Dunkin' Dan
TTITLE22=Soft Shoulders And Dangerous Curves
TTITLE23=Moonlight Ride In A Diesel
EXTD=
EXTT0=
EXTT1=
EXTT2=
EXTT3=
EXTT4=
EXTT5=
EXTT6=
EXTT7=
EXTT8=
EXTT9=
EXTT10=
EXTT11=
EXTT12=
EXTT13=
EXTT14=
EXTT15=
EXTT16=
EXTT17=
EXTT18=
EXTT19=
EXTT20=
EXTT21=
EXTT22=
EXTT23=
PLAYORDER=
